<?xml version="1.0" encoding="UTF-8"?>
<svg id="Layer_1" data-name="Layer 1" xmlns="http://www.w3.org/2000/svg" xmlns:xlink="http://www.w3.org/1999/xlink" viewBox="0 0 1800 1800">
  <defs>
    <style>
      .cls-1 {
        fill: url(#linear-gradient-2);
      }

      .cls-2 {
        font-size: 61.14px;
      }

      .cls-2, .cls-3 {
        fill: #363636;
        font-family: ReemKufi-Bold, 'Reem Kufi';
        font-weight: 700;
      }

      .cls-3 {
        font-size: 351.3px;
      }

      .cls-4 {
        fill: url(#linear-gradient-5);
      }

      .cls-5 {
        fill: url(#linear-gradient-3);
      }

      .cls-6 {
        fill: url(#linear-gradient);
      }

      .cls-7 {
        fill: url(#linear-gradient-4);
      }
    </style>
    <linearGradient id="linear-gradient" x1="1237.22" y1="984.78" x2="577.02" y2="984.78" gradientUnits="userSpaceOnUse">
      <stop offset="0" stop-color="#3b3b3b"/>
      <stop offset=".4" stop-color="#383838"/>
      <stop offset=".61" stop-color="#303030"/>
      <stop offset=".77" stop-color="#232323"/>
      <stop offset=".91" stop-color="#101010"/>
      <stop offset="1" stop-color="#000"/>
    </linearGradient>
    <linearGradient id="linear-gradient-2" x1="1196.52" y1="679.54" x2="188.6" y2="679.54" gradientUnits="userSpaceOnUse">
      <stop offset="0" stop-color="#3b3b3b"/>
      <stop offset=".46" stop-color="#383838"/>
      <stop offset=".65" stop-color="#313131"/>
      <stop offset=".79" stop-color="#252525"/>
      <stop offset=".91" stop-color="#131313"/>
      <stop offset="1" stop-color="#000"/>
    </linearGradient>
    <linearGradient id="linear-gradient-3" x1="1414.84" y1="505.11" x2="1009.89" y2="505.11" gradientUnits="userSpaceOnUse">
      <stop offset="0" stop-color="#5b7fe9"/>
      <stop offset=".31" stop-color="#577be6"/>
      <stop offset=".61" stop-color="#4b70de"/>
      <stop offset=".9" stop-color="#385fd0"/>
      <stop offset="1" stop-color="#3057ca"/>
    </linearGradient>
    <linearGradient id="linear-gradient-4" x1="1435.77" y1="853.96" x2="1030.82" y2="853.96" gradientUnits="userSpaceOnUse">
      <stop offset="0" stop-color="#5b7fe9"/>
      <stop offset=".31" stop-color="#577be6"/>
      <stop offset=".6" stop-color="#4b70de"/>
      <stop offset=".89" stop-color="#385fd0"/>
      <stop offset="1" stop-color="#2f56ca"/>
    </linearGradient>
    <linearGradient id="linear-gradient-5" x1="688.3" y1="679.54" x2="1409.63" y2="679.54" gradientUnits="userSpaceOnUse">
      <stop offset="0" stop-color="#3b3b3b"/>
      <stop offset=".41" stop-color="#383838"/>
      <stop offset=".61" stop-color="#313131"/>
      <stop offset=".77" stop-color="#232323"/>
      <stop offset=".91" stop-color="#111"/>
      <stop offset="1" stop-color="#000"/>
    </linearGradient>
  </defs>
  <path class="cls-6" d="m1269.49,912.11c-25.03,84.05-102.91,145.35-195.07,145.35h-465.13c20.22,0,39.73-2.94,58.14-8.43,65.64-19.54,117.38-71.29,136.92-136.92h465.13Z"/>
  <path class="cls-1" d="m1269.3,446.97h-658.49c-31.6,0-58.57,24.56-59.63,56.14-1.11,33.02,25.34,60.14,58.11,60.14h63.37c77.39,0,140.12,62.73,140.12,140.12v150.59c0,20.22-2.94,39.73-8.43,58.14-19.54,65.64-71.29,117.38-136.92,136.92-18.41,5.49-37.92,8.43-58.14,8.43h-58.28c-80.2,0-145.22-65.02-145.22-145.22h0c0-.08.06-.14.14-.14h203.22c32.19,0,58.28-26.09,58.28-58.28v-87.08c0-32.11-26.03-58.14-58.14-58.14h0c-38.37,0-74.26-10.63-104.88-29.07-42.96-25.91-75.58-67.22-90.18-116.28-5.49-18.41-8.43-37.92-8.43-58.14s2.94-39.73,8.43-58.14c25.03-84.05,102.91-145.35,195.07-145.35h465.13c92.09,0,169.92,61.22,195.01,145.17.03.09-.04.18-.13.18Z"/>
  <text class="cls-3" transform="translate(510.84 1377.24)"><tspan x="0" y="0">SBC</tspan></text>
  <text class="cls-2" transform="translate(522.08 1498.38)"><tspan x="0" y="0">Secure Byte Chronicles</tspan></text>
  <path class="cls-5" d="m1394.2,446.97h0c0,64.22-52.06,116.28-116.28,116.28h-288.67c40.21-69.51,115.38-116.28,201.46-116.28h203.5Z"/>
  <path class="cls-7" d="m1394.2,912.11h0s-203.5,0-203.5,0c-86.08,0-161.25-46.77-201.46-116.28h288.67c64.22,0,116.28,52.06,116.28,116.28Z"/>
  <path class="cls-4" d="m1216.84,708.61c24.32,23.84,42.67,53.72,52.65,87.21h-425.37v-89.47c0-79.03,64.06-143.09,143.09-143.09h282.28c-14.6,49.07-47.22,90.38-90.18,116.28,13.63,8.2,26.23,17.99,37.53,29.07Z"/>
</svg>