<svg id="Layer_1" data-name="Layer 1" xmlns="http://www.w3.org/2000/svg" xmlns:xlink="http://www.w3.org/1999/xlink" viewBox="0 0 1800 1800"><defs><style>.cls-1{fill:url(#linear-gradient-2)}.cls-2{fill:url(#linear-gradient-5)}.cls-3{font-size:60.09px}.cls-3,.cls-4{fill:#d7d7d7;font-family:ReemKufi-Bold,reem kufi;font-weight:700}.cls-5{fill:url(#linear-gradient-3)}.cls-6{fill:url(#linear-gradient)}.cls-4{font-size:345.3px}.cls-7{fill:url(#linear-gradient-4)}</style><linearGradient id="linear-gradient" x1="1270.18" y1="983.33" x2="621.26" y2="983.33" gradientUnits="userSpaceOnUse"><stop offset="0" stop-color="#d9d9d9"/><stop offset="1" stop-color="#b8b8b8"/></linearGradient><linearGradient id="linear-gradient-2" x1="1230.17" y1="683.31" x2="239.48" y2="683.31" gradientUnits="userSpaceOnUse"><stop offset="0" stop-color="#d9d9d9"/><stop offset=".35" stop-color="#d6d6d6"/><stop offset=".54" stop-color="#cecece"/><stop offset=".7" stop-color="silver"/><stop offset=".84" stop-color="#adadad"/><stop offset=".96" stop-color="#949494"/><stop offset="1" stop-color="#8a8a8a"/></linearGradient><linearGradient id="linear-gradient-3" x1="1444.76" y1="511.86" x2="1046.73" y2="511.86" gradientUnits="userSpaceOnUse"><stop offset="0" stop-color="#5b7fe9"/><stop offset=".31" stop-color="#577be6"/><stop offset=".61" stop-color="#4b70de"/><stop offset=".9" stop-color="#385fd0"/><stop offset="1" stop-color="#3057ca"/></linearGradient><linearGradient id="linear-gradient-4" x1="1465.34" y1="854.75" x2="1067.3" y2="854.75" gradientUnits="userSpaceOnUse"><stop offset="0" stop-color="#5b7fe9"/><stop offset=".31" stop-color="#577be6"/><stop offset=".6" stop-color="#4b70de"/><stop offset=".89" stop-color="#385fd0"/><stop offset="1" stop-color="#2f56ca"/></linearGradient><linearGradient id="linear-gradient-5" x1="730.64" y1="683.31" x2="1439.64" y2="683.31" gradientUnits="userSpaceOnUse"><stop offset="0" stop-color="#d9d9d9"/><stop offset=".41" stop-color="#d6d6d6"/><stop offset=".71" stop-color="#ccc"/><stop offset=".98" stop-color="#bcbcbc"/><stop offset="1" stop-color="#bbb"/></linearGradient></defs><path class="cls-6" d="m1301.89 911.9c-24.61 82.61-101.15 142.87-191.73 142.87H652.98c19.87.0 39.05-2.89 57.15-8.29 64.51-19.21 115.38-70.07 134.58-134.58h457.18z"/><path class="cls-1" d="m1301.71 454.71H654.48c-31.06.0-57.57 24.14-58.61 55.18-1.09 32.46 24.9 59.12 57.11 59.12h62.29c76.06.0 137.73 61.66 137.73 137.73v148.01c0 19.87-2.89 39.05-8.29 57.15-19.21 64.51-70.07 115.38-134.58 134.58-18.1 5.4-37.27 8.29-57.15 8.29H595.7c-78.83.0-142.74-63.9-142.74-142.74h0c0-.07.06-.13.13-.13h199.75c31.64.0 57.28-25.65 57.28-57.28v-85.59c0-31.56-25.59-57.15-57.15-57.15h0c-37.72.0-72.99-10.45-103.09-28.57-42.23-25.46-74.29-66.07-88.64-114.3-5.4-18.1-8.29-37.27-8.29-57.15s2.89-39.05 8.29-57.15c24.61-82.61 101.15-142.87 191.73-142.87h457.18c90.52.0 167.02 60.17 191.68 142.69.03.09-.04.18-.13.18z"/><text class="cls-4" transform="translate(556.21 1369.08)"><tspan x="0" y="0">SBC</tspan></text><text class="cls-3" transform="translate(567.25 1488.16)"><tspan x="0" y="0">Secure Byte Chronicles</tspan></text><path class="cls-5" d="m1424.48 454.71h0c0 63.12-51.17 114.3-114.3 114.3h-283.74c39.53-68.32 113.41-114.3 198.02-114.3h200.02z"/><path class="cls-7" d="m1424.48 911.9h0-200.02c-84.61.0-158.49-45.97-198.02-114.3h283.74c63.12.0 114.3 51.17 114.3 114.3z"/><path class="cls-2" d="m1250.14 711.88c23.91 23.43 41.94 52.8 51.75 85.72h-418.1v-87.94c0-77.68 62.97-140.65 140.65-140.65h277.45c-14.35 48.23-46.42 88.83-88.64 114.3 13.4 8.06 25.78 17.68 36.89 28.57z"/></svg>