<svg id="Layer_1" data-name="Layer 1" xmlns="http://www.w3.org/2000/svg" xmlns:xlink="http://www.w3.org/1999/xlink" viewBox="0 0 1800 1800"><defs><style>.cls-1{fill:url(#linear-gradient-2)}.cls-2{fill:#363636;font-family:ErasITC-Bold,eras bold itc;font-size:446.61px;font-weight:700}.cls-3{fill:none}.cls-4{fill:url(#linear-gradient-3)}.cls-5{fill:url(#linear-gradient)}.cls-6{font-family:ArialRoundedMTBold,arial rounded mt bold;font-size:75.33px}</style><linearGradient id="linear-gradient" x1="528.07" y1="516.2" x2="1383.83" y2="945.84" gradientUnits="userSpaceOnUse"><stop offset="0" stop-color="#5b7fe9"/><stop offset=".24" stop-color="#577be6"/><stop offset=".47" stop-color="#4b70de"/><stop offset=".7" stop-color="#385ed0"/><stop offset=".92" stop-color="#1d46bd"/><stop offset="1" stop-color="#123bb5"/></linearGradient><linearGradient id="linear-gradient-2" x1="601.63" y1="935.29" x2="1186.36" y2="587.46" gradientUnits="userSpaceOnUse"><stop offset="0" stop-color="#3b3b3b"/><stop offset=".27" stop-color="#373737"/><stop offset=".52" stop-color="#2b2b2b"/><stop offset=".77" stop-color="#181818"/><stop offset="1" stop-color="#000"/></linearGradient><linearGradient id="linear-gradient-3" x1="854.94" y1="251.69" x2="997.06" y2="565.21" xlink:href="#linear-gradient-2"/></defs><path class="cls-5" d="m1331.56 805.8v56.8c0 62.73-23.74 119.88-62.77 162.98 45.43-101.45-46.09-194.64-180.24-194.64H695.4c-2.37.0-4.77-.04-7.14-.12-94.58-3.3-193.28-45.51-205.38-171.2l-14.43-144.86V244.36l33.98 151.77c29.79 119.18 91.25 163.25 185.83 166.51 2.37.12 4.77.16 7.14.16h393.15c134.19.0 243.01 108.78 243.01 243.01z"/><path class="cls-1" d="m1268.79 1025.57s-.04.04-.04.08c-44.5 49.11-108.74 79.96-180.2 79.96H711.46c-134.19.0-243.01-108.78-243.01-243.01V514.76l14.43 144.86c12.1 125.7 110.8 167.91 205.38 171.2 2.37.08 4.77.12 7.14.12h393.15c134.15.0 225.67 93.19 180.24 194.64z"/><path class="cls-4" d="m1239.38 372.15c0 35.3-14.32 67.23-37.44 90.35-23.12 23.12-55.05 37.44-90.35 37.44H759.41c-129.63.53-172.93-38.41-202.98-184.35l-16.76-71.23h571.92c70.57.0 127.79 57.22 127.79 127.79z"/><text class="cls-2" transform="translate(468.44 1512.65)"><tspan x="0" y="0">SBC</tspan></text><text class="cls-6" transform="translate(468.44 1690.25)"><tspan x="0" y="0">Secure Byte Chronicles</tspan></text><path class="cls-3" d="m924 1192.81c-1.05.12-2.09.19-3.14.19h-5c2.75.0 5.47-.08 8.15-.19z"/></svg>